<svg width="337" height="460" viewBox="0 0 337 460" fill="none" xmlns="http://www.w3.org/2000/svg">
<path d="M4.37895 299.819C7.93549 388.145 70.1783 443.274 166.21 443.274C257.499 443.274 320.927 394.665 320.927 311.675C320.927 220.386 243.865 199.638 185.772 185.411C138.349 174.148 102.189 165.257 102.189 134.432C102.189 110.127 124.715 93.5296 159.689 93.5296C199.406 93.5296 223.117 114.277 226.081 146.88H312.036C309.664 68.0397 249.2 16.4673 161.467 16.4673C75.5135 16.4673 16.2346 66.8541 16.2346 137.396C16.2346 234.613 93.8895 253.582 156.725 268.402C199.406 278.479 234.973 287.964 234.973 319.974C234.973 349.613 204.148 366.212 166.803 366.212C120.565 366.212 93.8895 341.907 90.333 299.819H4.37895Z" fill="#ECECEC"/>
<path d="M162.653 350.135C164.013 350.186 165.395 350.211 166.803 350.211C183.15 350.211 197.62 346.705 207.382 340.084C214.55 335.222 218.973 328.423 218.973 319.974C218.973 311.032 213.326 304.872 204.292 300.026C191.851 293.352 173.353 288.746 153.1 283.964C120.315 276.232 83.6455 267.405 53.8541 246.923C22.5332 225.39 0.234344 192.32 0.234344 137.396C0.234344 97.0756 17.2959 62.4865 46.7085 37.9963C75.0936 14.3614 114.843 0.467087 161.467 0.467087C161.864 0.467087 162.258 0.470863 162.653 0.472752V109.575C161.679 109.545 160.692 109.53 159.689 109.53C145.678 109.53 134.569 112.534 127.249 117.741C121.454 121.863 118.189 127.642 118.189 134.432C118.189 142.581 123.887 148.29 133.322 153.007C146.435 159.564 166.576 164.414 189.459 169.849L189.522 169.911C219.938 177.36 255.363 186.545 284.197 206.52C314.743 227.68 336.928 259.734 336.928 311.675C336.928 357.458 319.505 394.1 289.464 419.652C259.219 445.377 216.431 459.274 166.21 459.274C165.019 459.274 163.834 459.264 162.653 459.248V350.135Z" fill="#ECECEC"/>
<path d="M4.37895 299.819C7.93549 388.145 70.1783 443.274 166.21 443.274C257.499 443.274 320.927 394.665 320.927 311.675C320.927 220.386 243.865 199.638 185.772 185.411C138.349 174.148 102.189 165.257 102.189 134.432C102.189 110.127 124.715 93.5296 159.689 93.5296C199.406 93.5296 223.117 114.277 226.081 146.88H312.036C309.664 68.0397 249.2 16.4673 161.467 16.4673C75.5135 16.4673 16.2346 66.8541 16.2346 137.396C16.2346 234.613 93.8895 253.582 156.725 268.402C199.406 278.479 234.973 287.964 234.973 319.974C234.973 349.613 204.148 366.212 166.803 366.212C120.565 366.212 93.8895 341.907 90.333 299.819H4.37895Z" fill="#ECECEC"/>
<path d="M162.658 93.5727C170.337 93.7779 177.388 94.7818 183.774 96.517L162.655 16.4783H162.653V93.5689L162.658 93.5727Z" fill="#ADADB3"/>
<path d="M162.652 443.242H162.653V366.15L162.643 366.144C155.058 365.896 148.032 364.962 141.579 363.378L162.652 443.242Z" fill="#ADADB3"/>
</svg>
